<?xml version="1.0" encoding="utf-8"?>
<!-- Generator: Adobe Illustrator 14.0.0, SVG Export Plug-In . SVG Version: 6.00 Build 43363)  -->
<!DOCTYPE svg PUBLIC "-//W3C//DTD SVG 1.1//EN" "http://www.w3.org/Graphics/SVG/1.1/DTD/svg11.dtd">
<svg version="1.1" id="Calque_1" xmlns="http://www.w3.org/2000/svg" xmlns:xlink="http://www.w3.org/1999/xlink" x="0px" y="0px"
	 width="595.28px" height="841.89px" viewBox="0 0 595.28 841.89" enable-background="new 0 0 595.28 841.89" xml:space="preserve">
<circle fill="#478494" cx="297.641" cy="381.329" r="141.732"/>
<g>
	<path fill="#FFFFFF" d="M207.62,419.695c0,6.315-1.058,10.941-3.174,13.88c-2.116,2.938-5.355,4.406-9.717,4.406
		c-4.265,0-7.479-1.534-9.644-4.602c-2.165-3.068-3.247-7.63-3.247-13.685c0-6.348,1.058-11.002,3.174-13.965
		c2.116-2.962,5.354-4.443,9.717-4.443c4.248,0,7.458,1.542,9.631,4.626C206.534,408.998,207.62,413.592,207.62,419.695z
		 M191.434,419.695c0,4.037,0.252,6.812,0.757,8.325c0.504,1.514,1.351,2.271,2.539,2.271c1.204,0,2.055-0.781,2.551-2.344
		c0.496-1.562,0.745-4.312,0.745-8.252c0-3.955-0.252-6.726-0.757-8.313c-0.505-1.586-1.351-2.38-2.539-2.38
		c-1.188,0-2.035,0.766-2.539,2.295C191.686,412.827,191.434,415.627,191.434,419.695z"/>
	<path fill="#FFFFFF" d="M245.364,437.493h-9.79v-18.896c0-2.295,0.049-4.395,0.146-6.299c-0.603,0.732-1.351,1.498-2.246,2.295
		l-4.053,3.345l-5.005-6.152l12.256-9.985h8.691V437.493z"/>
	<path fill="#FFFFFF" d="M292.19,419.695c0,6.315-1.058,10.941-3.174,13.88c-2.116,2.938-5.355,4.406-9.717,4.406
		c-4.265,0-7.479-1.534-9.644-4.602c-2.165-3.068-3.247-7.63-3.247-13.685c0-6.348,1.058-11.002,3.174-13.965
		c2.116-2.962,5.354-4.443,9.717-4.443c4.248,0,7.458,1.542,9.631,4.626C291.104,408.998,292.19,413.592,292.19,419.695z
		 M276.004,419.695c0,4.037,0.252,6.812,0.757,8.325c0.504,1.514,1.351,2.271,2.539,2.271c1.204,0,2.055-0.781,2.551-2.344
		c0.496-1.562,0.745-4.312,0.745-8.252c0-3.955-0.252-6.726-0.757-8.313c-0.505-1.586-1.351-2.38-2.539-2.38
		c-1.188,0-2.035,0.766-2.539,2.295C276.256,412.827,276.004,415.627,276.004,419.695z"/>
	<path fill="#FFFFFF" d="M329.934,437.493h-9.789v-18.896c0-2.295,0.049-4.395,0.146-6.299c-0.604,0.732-1.352,1.498-2.246,2.295
		l-4.053,3.345l-5.006-6.152l12.256-9.985h8.691V437.493z"/>
	<path fill="#FFFFFF" d="M376.76,419.695c0,6.315-1.059,10.941-3.174,13.88c-2.115,2.938-5.355,4.406-9.717,4.406
		c-4.264,0-7.479-1.534-9.643-4.602c-2.166-3.068-3.248-7.63-3.248-13.685c0-6.348,1.059-11.002,3.174-13.965
		c2.115-2.962,5.355-4.443,9.717-4.443c4.248,0,7.459,1.542,9.631,4.626C375.674,408.998,376.76,413.592,376.76,419.695z
		 M360.574,419.695c0,4.037,0.252,6.812,0.756,8.325s1.352,2.271,2.539,2.271c1.205,0,2.055-0.781,2.551-2.344
		c0.498-1.562,0.746-4.312,0.746-8.252c0-3.955-0.254-6.726-0.758-8.313c-0.504-1.586-1.352-2.38-2.539-2.38
		s-2.035,0.766-2.539,2.295C360.826,412.827,360.574,415.627,360.574,419.695z"/>
	<path fill="#FFFFFF" d="M414.504,437.493h-9.789v-18.896c0-2.295,0.049-4.395,0.146-6.299c-0.604,0.732-1.352,1.498-2.246,2.295
		l-4.053,3.345l-5.006-6.152l12.256-9.985h8.691V437.493z"/>
	<path fill="#FFFFFF" d="M461.33,419.695c0,6.315-1.059,10.941-3.174,13.88c-2.115,2.938-5.355,4.406-9.717,4.406
		c-4.264,0-7.479-1.534-9.643-4.602c-2.166-3.068-3.248-7.63-3.248-13.685c0-6.348,1.059-11.002,3.174-13.965
		c2.115-2.962,5.355-4.443,9.717-4.443c4.248,0,7.459,1.542,9.631,4.626C460.244,408.998,461.33,413.592,461.33,419.695z
		 M445.145,419.695c0,4.037,0.252,6.812,0.756,8.325s1.352,2.271,2.539,2.271c1.205,0,2.055-0.781,2.551-2.344
		c0.498-1.562,0.746-4.312,0.746-8.252c0-3.955-0.254-6.726-0.758-8.313c-0.504-1.586-1.352-2.38-2.539-2.38
		s-2.035,0.766-2.539,2.295C445.396,412.827,445.145,415.627,445.145,419.695z"/>
	<path fill="#FFFFFF" d="M203.079,497.493h-9.79v-18.896c0-2.295,0.049-4.395,0.146-6.299c-0.603,0.732-1.351,1.498-2.246,2.295
		l-4.053,3.345l-5.005-6.152l12.256-9.985h8.691V497.493z"/>
	<path fill="#FFFFFF" d="M249.905,479.695c0,6.315-1.058,10.941-3.174,13.88c-2.116,2.938-5.355,4.406-9.717,4.406
		c-4.265,0-7.479-1.534-9.644-4.602c-2.165-3.068-3.247-7.63-3.247-13.685c0-6.348,1.058-11.002,3.174-13.965
		c2.116-2.962,5.354-4.443,9.717-4.443c4.248,0,7.458,1.542,9.631,4.626C248.819,468.998,249.905,473.592,249.905,479.695z
		 M233.719,479.695c0,4.037,0.252,6.812,0.757,8.325c0.504,1.514,1.351,2.271,2.539,2.271c1.204,0,2.055-0.781,2.551-2.344
		c0.496-1.562,0.745-4.312,0.745-8.252c0-3.955-0.252-6.726-0.757-8.313c-0.505-1.586-1.351-2.38-2.539-2.38
		c-1.188,0-2.035,0.766-2.539,2.295C233.971,472.827,233.719,475.627,233.719,479.695z"/>
	<path fill="#FFFFFF" d="M287.649,497.493h-9.79v-18.896c0-2.295,0.049-4.395,0.146-6.299c-0.603,0.732-1.351,1.498-2.246,2.295
		l-4.053,3.345l-5.005-6.152l12.256-9.985h8.691V497.493z"/>
	<path fill="#FFFFFF" d="M334.475,479.695c0,6.315-1.059,10.941-3.174,13.88c-2.115,2.938-5.355,4.406-9.717,4.406
		c-4.264,0-7.479-1.534-9.643-4.602c-2.166-3.068-3.248-7.63-3.248-13.685c0-6.348,1.059-11.002,3.174-13.965
		c2.115-2.962,5.355-4.443,9.717-4.443c4.248,0,7.459,1.542,9.631,4.626C333.389,468.998,334.475,473.592,334.475,479.695z
		 M318.289,479.695c0,4.037,0.252,6.812,0.756,8.325s1.352,2.271,2.539,2.271c1.205,0,2.055-0.781,2.551-2.344
		c0.498-1.562,0.746-4.312,0.746-8.252c0-3.955-0.254-6.726-0.758-8.313c-0.504-1.586-1.352-2.38-2.539-2.38
		s-2.035,0.766-2.539,2.295C318.541,472.827,318.289,475.627,318.289,479.695z"/>
	<path fill="#FFFFFF" d="M372.219,497.493h-9.789v-18.896c0-2.295,0.049-4.395,0.146-6.299c-0.604,0.732-1.352,1.498-2.246,2.295
		l-4.053,3.345l-5.006-6.152l12.256-9.985h8.691V497.493z"/>
	<path fill="#FFFFFF" d="M419.045,479.695c0,6.315-1.059,10.941-3.174,13.88c-2.115,2.938-5.355,4.406-9.717,4.406
		c-4.264,0-7.479-1.534-9.643-4.602c-2.166-3.068-3.248-7.63-3.248-13.685c0-6.348,1.059-11.002,3.174-13.965
		c2.115-2.962,5.355-4.443,9.717-4.443c4.248,0,7.459,1.542,9.631,4.626C417.959,468.998,419.045,473.592,419.045,479.695z
		 M402.859,479.695c0,4.037,0.252,6.812,0.756,8.325s1.352,2.271,2.539,2.271c1.205,0,2.055-0.781,2.551-2.344
		c0.498-1.562,0.746-4.312,0.746-8.252c0-3.955-0.254-6.726-0.758-8.313c-0.504-1.586-1.352-2.38-2.539-2.38
		s-2.035,0.766-2.539,2.295C403.111,472.827,402.859,475.627,402.859,479.695z"/>
	<path fill="#FFFFFF" d="M456.789,497.493H447v-18.896c0-2.295,0.049-4.395,0.146-6.299c-0.604,0.732-1.352,1.498-2.246,2.295
		l-4.053,3.345l-5.006-6.152l12.256-9.985h8.691V497.493z"/>
</g>
<g id="geo">
	
		<ellipse fill="none" stroke="#FFFFFF" stroke-width="5" stroke-linecap="round" cx="297.64" cy="381.329" rx="85.039" ry="141.732"/>
	
		<line fill="none" stroke="#FFFFFF" stroke-width="5" stroke-linecap="round" x1="170.081" y1="453.171" x2="425.199" y2="453.174"/>
	
		<line fill="none" stroke="#FFFFFF" stroke-width="5" stroke-linecap="round" x1="170.081" y1="309.487" x2="425.199" y2="309.484"/>
	
		<line fill="none" stroke="#FFFFFF" stroke-width="5" stroke-linecap="round" x1="155.908" y1="381.329" x2="439.373" y2="381.329"/>
	<line fill="none" stroke="#FFFFFF" stroke-width="5" stroke-linecap="round" x1="297.64" y1="239.597" x2="297.64" y2="523.062"/>
</g>
<g id="time">
	
		<line fill="none" stroke="#FFFFFF" stroke-width="25" stroke-linecap="round" x1="297.641" y1="381.329" x2="211.72" y2="331.723"/>
	
		<line fill="none" stroke="#FFFFFF" stroke-width="25" stroke-linecap="round" x1="297.641" y1="381.329" x2="359.013" y2="345.896"/>
</g>
</svg>
