<?xml version="1.0" encoding="UTF-8" standalone="no"?>
<!-- Generator: Adobe Illustrator 14.0.0, SVG Export Plug-In . SVG Version: 6.00 Build 43363)  -->

<svg
   xmlns:dc="http://purl.org/dc/elements/1.1/"
   xmlns:cc="http://creativecommons.org/ns#"
   xmlns:rdf="http://www.w3.org/1999/02/22-rdf-syntax-ns#"
   xmlns:svg="http://www.w3.org/2000/svg"
   xmlns="http://www.w3.org/2000/svg"
   xmlns:sodipodi="http://sodipodi.sourceforge.net/DTD/sodipodi-0.dtd"
   xmlns:inkscape="http://www.inkscape.org/namespaces/inkscape"
   version="1.1"
   id="Calque_1"
   x="0px"
   y="0px"
   width="307.95761"
   height="288.53622"
   viewBox="0 0 307.9576 288.53622"
   enable-background="new 0 0 595.28 841.89"
   xml:space="preserve"
   inkscape:version="0.91 r13725"
   sodipodi:docname="oedb.svg"><metadata
     id="metadata55"><rdf:RDF><cc:Work
         rdf:about=""><dc:format>image/svg+xml</dc:format><dc:type
           rdf:resource="http://purl.org/dc/dcmitype/StillImage" /><dc:title></dc:title></cc:Work></rdf:RDF></metadata><defs
     id="defs53" /><sodipodi:namedview
     pagecolor="#ffffff"
     bordercolor="#666666"
     borderopacity="1"
     objecttolerance="10"
     gridtolerance="10"
     guidetolerance="10"
     inkscape:pageopacity="0"
     inkscape:pageshadow="2"
     inkscape:window-width="1440"
     inkscape:window-height="851"
     id="namedview51"
     showgrid="false"
     fit-margin-top="0"
     fit-margin-left="0"
     fit-margin-right="0"
     fit-margin-bottom="0"
     inkscape:zoom="0.28032165"
     inkscape:cx="144.26762"
     inkscape:cy="104.65261"
     inkscape:window-x="0"
     inkscape:window-y="1"
     inkscape:window-maximized="1"
     inkscape:current-layer="Calque_1" /><circle
     cx="144.26859"
     cy="144.26761"
     r="141.73199"
     id="circle3"
     style="fill:#478494" /><g
     id="g5"
     transform="translate(-153.3724,-237.06139)"><path
       d="m 207.62,419.695 c 0,6.315 -1.058,10.941 -3.174,13.88 -2.116,2.938 -5.355,4.406 -9.717,4.406 -4.265,0 -7.479,-1.534 -9.644,-4.602 -2.165,-3.068 -3.247,-7.63 -3.247,-13.685 0,-6.348 1.058,-11.002 3.174,-13.965 2.116,-2.962 5.354,-4.443 9.717,-4.443 4.248,0 7.458,1.542 9.631,4.626 2.174,3.086 3.26,7.68 3.26,13.783 z m -16.186,0 c 0,4.037 0.252,6.812 0.757,8.325 0.504,1.514 1.351,2.271 2.539,2.271 1.204,0 2.055,-0.781 2.551,-2.344 0.496,-1.562 0.745,-4.312 0.745,-8.252 0,-3.955 -0.252,-6.726 -0.757,-8.313 -0.505,-1.586 -1.351,-2.38 -2.539,-2.38 -1.188,0 -2.035,0.766 -2.539,2.295 -0.505,1.53 -0.757,4.33 -0.757,8.398 z"
       id="path7"
       inkscape:connector-curvature="0"
       style="fill:#ffffff" /><path
       d="m 245.364,437.493 -9.79,0 0,-18.896 c 0,-2.295 0.049,-4.395 0.146,-6.299 -0.603,0.732 -1.351,1.498 -2.246,2.295 l -4.053,3.345 -5.005,-6.152 12.256,-9.985 8.691,0 0,35.692 z"
       id="path9"
       inkscape:connector-curvature="0"
       style="fill:#ffffff" /><path
       d="m 292.19,419.695 c 0,6.315 -1.058,10.941 -3.174,13.88 -2.116,2.938 -5.355,4.406 -9.717,4.406 -4.265,0 -7.479,-1.534 -9.644,-4.602 -2.165,-3.068 -3.247,-7.63 -3.247,-13.685 0,-6.348 1.058,-11.002 3.174,-13.965 2.116,-2.962 5.354,-4.443 9.717,-4.443 4.248,0 7.458,1.542 9.631,4.626 2.174,3.086 3.26,7.68 3.26,13.783 z m -16.186,0 c 0,4.037 0.252,6.812 0.757,8.325 0.504,1.514 1.351,2.271 2.539,2.271 1.204,0 2.055,-0.781 2.551,-2.344 0.496,-1.562 0.745,-4.312 0.745,-8.252 0,-3.955 -0.252,-6.726 -0.757,-8.313 -0.505,-1.586 -1.351,-2.38 -2.539,-2.38 -1.188,0 -2.035,0.766 -2.539,2.295 -0.505,1.53 -0.757,4.33 -0.757,8.398 z"
       id="path11"
       inkscape:connector-curvature="0"
       style="fill:#ffffff" /><path
       d="m 329.934,437.493 -9.789,0 0,-18.896 c 0,-2.295 0.049,-4.395 0.146,-6.299 -0.604,0.732 -1.352,1.498 -2.246,2.295 l -4.053,3.345 -5.006,-6.152 12.256,-9.985 8.691,0 0,35.692 z"
       id="path13"
       inkscape:connector-curvature="0"
       style="fill:#ffffff" /><path
       d="m 376.76,419.695 c 0,6.315 -1.059,10.941 -3.174,13.88 -2.115,2.938 -5.355,4.406 -9.717,4.406 -4.264,0 -7.479,-1.534 -9.643,-4.602 -2.166,-3.068 -3.248,-7.63 -3.248,-13.685 0,-6.348 1.059,-11.002 3.174,-13.965 2.115,-2.962 5.355,-4.443 9.717,-4.443 4.248,0 7.459,1.542 9.631,4.626 2.174,3.086 3.26,7.68 3.26,13.783 z m -16.186,0 c 0,4.037 0.252,6.812 0.756,8.325 0.504,1.513 1.352,2.271 2.539,2.271 1.205,0 2.055,-0.781 2.551,-2.344 0.498,-1.562 0.746,-4.312 0.746,-8.252 0,-3.955 -0.254,-6.726 -0.758,-8.313 -0.504,-1.586 -1.352,-2.38 -2.539,-2.38 -1.187,0 -2.035,0.766 -2.539,2.295 -0.504,1.53 -0.756,4.33 -0.756,8.398 z"
       id="path15"
       inkscape:connector-curvature="0"
       style="fill:#ffffff" /><path
       d="m 414.504,437.493 -9.789,0 0,-18.896 c 0,-2.295 0.049,-4.395 0.146,-6.299 -0.604,0.732 -1.352,1.498 -2.246,2.295 l -4.053,3.345 -5.006,-6.152 12.256,-9.985 8.691,0 0,35.692 z"
       id="path17"
       inkscape:connector-curvature="0"
       style="fill:#ffffff" /><path
       d="m 461.33,419.695 c 0,6.315 -1.059,10.941 -3.174,13.88 -2.115,2.938 -5.355,4.406 -9.717,4.406 -4.264,0 -7.479,-1.534 -9.643,-4.602 -2.166,-3.068 -3.248,-7.63 -3.248,-13.685 0,-6.348 1.059,-11.002 3.174,-13.965 2.115,-2.962 5.355,-4.443 9.717,-4.443 4.248,0 7.459,1.542 9.631,4.626 2.174,3.086 3.26,7.68 3.26,13.783 z m -16.185,0 c 0,4.037 0.252,6.812 0.756,8.325 0.504,1.513 1.352,2.271 2.539,2.271 1.205,0 2.055,-0.781 2.551,-2.344 0.498,-1.562 0.746,-4.312 0.746,-8.252 0,-3.955 -0.254,-6.726 -0.758,-8.313 -0.504,-1.586 -1.352,-2.38 -2.539,-2.38 -1.187,0 -2.035,0.766 -2.539,2.295 -0.505,1.53 -0.756,4.33 -0.756,8.398 z"
       id="path19"
       inkscape:connector-curvature="0"
       style="fill:#ffffff" /><path
       d="m 203.079,497.493 -9.79,0 0,-18.896 c 0,-2.295 0.049,-4.395 0.146,-6.299 -0.603,0.732 -1.351,1.498 -2.246,2.295 l -4.053,3.345 -5.005,-6.152 12.256,-9.985 8.691,0 0,35.692 z"
       id="path21"
       inkscape:connector-curvature="0"
       style="fill:#ffffff" /><path
       d="m 249.905,479.695 c 0,6.315 -1.058,10.941 -3.174,13.88 -2.116,2.938 -5.355,4.406 -9.717,4.406 -4.265,0 -7.479,-1.534 -9.644,-4.602 -2.165,-3.068 -3.247,-7.63 -3.247,-13.685 0,-6.348 1.058,-11.002 3.174,-13.965 2.116,-2.962 5.354,-4.443 9.717,-4.443 4.248,0 7.458,1.542 9.631,4.626 2.174,3.086 3.26,7.68 3.26,13.783 z m -16.186,0 c 0,4.037 0.252,6.812 0.757,8.325 0.504,1.514 1.351,2.271 2.539,2.271 1.204,0 2.055,-0.781 2.551,-2.344 0.496,-1.562 0.745,-4.312 0.745,-8.252 0,-3.955 -0.252,-6.726 -0.757,-8.313 -0.505,-1.586 -1.351,-2.38 -2.539,-2.38 -1.188,0 -2.035,0.766 -2.539,2.295 -0.505,1.53 -0.757,4.33 -0.757,8.398 z"
       id="path23"
       inkscape:connector-curvature="0"
       style="fill:#ffffff" /><path
       d="m 287.649,497.493 -9.79,0 0,-18.896 c 0,-2.295 0.049,-4.395 0.146,-6.299 -0.603,0.732 -1.351,1.498 -2.246,2.295 l -4.053,3.345 -5.005,-6.152 12.256,-9.985 8.691,0 0,35.692 z"
       id="path25"
       inkscape:connector-curvature="0"
       style="fill:#ffffff" /><path
       d="m 334.475,479.695 c 0,6.315 -1.059,10.941 -3.174,13.88 -2.115,2.938 -5.355,4.406 -9.717,4.406 -4.264,0 -7.479,-1.534 -9.643,-4.602 -2.166,-3.068 -3.248,-7.63 -3.248,-13.685 0,-6.348 1.059,-11.002 3.174,-13.965 2.115,-2.962 5.355,-4.443 9.717,-4.443 4.248,0 7.459,1.542 9.631,4.626 2.174,3.086 3.26,7.68 3.26,13.783 z m -16.186,0 c 0,4.037 0.252,6.812 0.756,8.325 0.504,1.513 1.352,2.271 2.539,2.271 1.205,0 2.055,-0.781 2.551,-2.344 0.498,-1.562 0.746,-4.312 0.746,-8.252 0,-3.955 -0.254,-6.726 -0.758,-8.313 -0.504,-1.586 -1.352,-2.38 -2.539,-2.38 -1.187,0 -2.035,0.766 -2.539,2.295 -0.504,1.53 -0.756,4.33 -0.756,8.398 z"
       id="path27"
       inkscape:connector-curvature="0"
       style="fill:#ffffff" /><path
       d="m 372.219,497.493 -9.789,0 0,-18.896 c 0,-2.295 0.049,-4.395 0.146,-6.299 -0.604,0.732 -1.352,1.498 -2.246,2.295 l -4.053,3.345 -5.006,-6.152 12.256,-9.985 8.691,0 0,35.692 z"
       id="path29"
       inkscape:connector-curvature="0"
       style="fill:#ffffff" /><path
       d="m 419.045,479.695 c 0,6.315 -1.059,10.941 -3.174,13.88 -2.115,2.938 -5.355,4.406 -9.717,4.406 -4.264,0 -7.479,-1.534 -9.643,-4.602 -2.166,-3.068 -3.248,-7.63 -3.248,-13.685 0,-6.348 1.059,-11.002 3.174,-13.965 2.115,-2.962 5.355,-4.443 9.717,-4.443 4.248,0 7.459,1.542 9.631,4.626 2.174,3.086 3.26,7.68 3.26,13.783 z m -16.186,0 c 0,4.037 0.252,6.812 0.756,8.325 0.504,1.513 1.352,2.271 2.539,2.271 1.205,0 2.055,-0.781 2.551,-2.344 0.498,-1.562 0.746,-4.312 0.746,-8.252 0,-3.955 -0.254,-6.726 -0.758,-8.313 -0.504,-1.586 -1.352,-2.38 -2.539,-2.38 -1.187,0 -2.035,0.766 -2.539,2.295 -0.504,1.53 -0.756,4.33 -0.756,8.398 z"
       id="path31"
       inkscape:connector-curvature="0"
       style="fill:#ffffff" /><path
       d="m 456.789,497.493 -9.789,0 0,-18.896 c 0,-2.295 0.049,-4.395 0.146,-6.299 -0.604,0.732 -1.352,1.498 -2.246,2.295 l -4.053,3.345 -5.006,-6.152 12.256,-9.985 8.691,0 0,35.692 z"
       id="path33"
       inkscape:connector-curvature="0"
       style="fill:#ffffff" /></g></svg>
